<svg width="69" height="23" viewBox="0 0 69 23" fill="none" xmlns="http://www.w3.org/2000/svg">
<g clip-path="url(#clip0_30_328)">
<path d="M0.5 0.5H15.2156V7.78567H7.8578L0.5 0.5ZM0.5 7.78567H7.8578L15.2156 15.0713H0.5V7.78567ZM0.5 15.0713H7.8578V22.357L0.5 15.0713Z" fill="white"/>
<path d="M23.5186 6.24805H29.4669V8.11971H25.77V10.7207H29.4669V12.551H25.77V15.8814H23.5186V6.24805ZM30.6899 9.24805H32.8164V10.638C32.9275 10.1604 33.1547 9.79371 33.4974 9.53705C33.8488 9.27071 34.239 9.13805 34.6648 9.13805C34.8873 9.13805 35.0728 9.15671 35.2206 9.19305V11.1474C35.0085 11.122 34.7951 11.1084 34.5813 11.106C33.9976 11.106 33.558 11.2937 33.2611 11.67C32.9652 12.037 32.8164 12.5874 32.8164 13.3217V15.8814H30.6909V9.24805H30.6899ZM38.5775 16.0604C37.9292 16.0604 37.3636 15.9087 36.8819 15.606C36.4093 15.3034 36.0336 14.8737 35.7979 14.3674C35.5478 13.8357 35.4219 13.234 35.4219 12.5647C35.4219 11.904 35.5525 11.3074 35.8117 10.7757C36.0548 10.262 36.4406 9.82771 36.9236 9.52338C37.4141 9.22071 37.975 9.06905 38.6055 9.06905C39.0778 9.06905 39.4999 9.17038 39.8702 9.37205C40.2405 9.57438 40.5186 9.84971 40.704 10.1977V9.24805H42.8164V15.8814H40.704V14.9454C40.5186 15.2757 40.2314 15.546 39.8423 15.7574C39.4531 15.9617 39.0182 16.0657 38.5775 16.0604ZM39.1892 14.3124C39.6985 14.3124 40.0924 14.1474 40.3704 13.817C40.6485 13.4867 40.7875 13.069 40.7875 12.5647C40.7875 12.0694 40.6485 11.6564 40.3704 11.326C40.0924 10.9957 39.6985 10.8307 39.1892 10.8307C38.7068 10.8307 38.3183 10.991 38.0217 11.3124C37.7346 11.6337 37.5909 12.0507 37.5909 12.5647C37.5909 13.0787 37.7346 13.5004 38.0217 13.8307C38.3183 14.152 38.7075 14.3124 39.1892 14.3124ZM44.3037 9.24805H46.4302V10.2114C46.579 9.87138 46.8193 9.59605 47.1526 9.38571C47.496 9.17538 47.8942 9.06905 48.348 9.06905C49.4043 9.06905 50.1042 9.47705 50.4466 10.294C50.6351 9.92371 50.93 9.61738 51.2945 9.41338C51.6844 9.18105 52.1321 9.06205 52.5869 9.06905C54.1714 9.06905 54.9635 9.96771 54.9635 11.7664V15.8814H52.8232V12.1517C52.8232 11.7027 52.7397 11.3724 52.5731 11.161C52.4061 10.9504 52.156 10.8444 51.8224 10.8444C51.4612 10.8444 51.1831 10.9684 50.9885 11.216C50.794 11.4547 50.6967 11.8717 50.6967 12.4684V15.8814H48.5564V12.138C48.5564 11.6887 48.4732 11.3627 48.3062 11.161C48.1494 10.9504 47.9033 10.8444 47.5704 10.8444C47.1994 10.8444 46.9166 10.9684 46.722 11.216C46.5275 11.4547 46.4302 11.8717 46.4302 12.4684V15.8814H44.3043V9.24805H44.3037ZM62.9518 12.2207C62.9518 12.5047 62.933 12.8124 62.8953 13.1427H57.9484C57.9673 13.574 58.1151 13.9037 58.3931 14.1337C58.6712 14.3627 59.0472 14.4777 59.5188 14.4777C60.177 14.4777 60.594 14.28 60.7698 13.8857H62.8545C62.7522 14.5374 62.391 15.0644 61.7702 15.4684C61.1589 15.8627 60.4082 16.0604 59.5188 16.0604C58.3702 16.0604 57.4667 15.7527 56.8086 15.138C56.1602 14.523 55.8357 13.6657 55.8357 12.5647C55.8357 11.849 55.9838 11.2297 56.2804 10.7067C56.5669 10.1844 57.0086 9.76171 57.5452 9.49571C58.0922 9.21171 58.7267 9.06905 59.4502 9.06905C60.1352 9.06905 60.7418 9.20205 61.27 9.46838C61.8073 9.73471 62.22 10.106 62.5068 10.583C62.8037 11.0607 62.9518 11.6064 62.9518 12.2207ZM60.8522 11.8354C60.8432 11.395 60.7183 11.0597 60.4769 10.8307C60.2365 10.6017 59.8885 10.4867 59.4347 10.4867C58.9809 10.4867 58.6197 10.6104 58.3507 10.8584C58.0915 11.097 57.9572 11.4224 57.9474 11.8354H60.8522ZM63.8894 9.24805H66.0159V10.638C66.127 10.1604 66.3542 9.79371 66.6969 9.53705C67.0295 9.27771 67.4408 9.13705 67.8643 9.13805C68.0865 9.13805 68.2723 9.15671 68.4201 9.19305V11.1474C68.208 11.122 67.9946 11.1084 67.7808 11.106C67.1971 11.106 66.7575 11.2937 66.4606 11.67C66.1637 12.037 66.0159 12.5874 66.0159 13.3217V15.8814H63.8894V9.24805Z" fill="white"/>
</g>
<defs>
<clipPath id="clip0_30_328">
<rect width="68" height="22" fill="white" transform="translate(0.5 0.5)"/>
</clipPath>
</defs>
</svg>
