<svg width="20" height="20" viewBox="0 0 20 20" fill="none" xmlns="http://www.w3.org/2000/svg">
<path d="M17.7671 3.11424C17.7537 2.88489 17.6565 2.66844 17.4941 2.50599C17.3316 2.34353 17.1152 2.24639 16.8858 2.23299C13.7921 2.05096 11.0585 2.41581 8.76081 3.31659C6.56237 4.17831 4.86784 5.51424 3.85846 7.17987C2.4819 9.45409 2.47877 12.215 3.82331 14.851L2.46159 16.2127C2.37438 16.2999 2.30521 16.4034 2.25801 16.5174C2.21081 16.6313 2.18652 16.7534 2.18652 16.8767C2.18652 17.0001 2.21081 17.1222 2.25801 17.2361C2.30521 17.3501 2.37438 17.4536 2.46159 17.5408C2.63771 17.7169 2.87658 17.8159 3.12565 17.8159C3.24898 17.8159 3.3711 17.7916 3.48504 17.7444C3.59898 17.6972 3.70251 17.628 3.78971 17.5408L5.15143 16.1791C6.45924 16.8463 7.79831 17.183 9.09284 17.183C10.4081 17.1871 11.6989 16.8275 12.8225 16.1439C14.4882 15.1346 15.8241 13.4392 16.6858 11.2416C17.5842 8.94237 17.9491 6.20799 17.7671 3.11424ZM11.8483 14.5377C10.2788 15.4885 8.43737 15.5603 6.55768 14.7658L13.1624 8.16112C13.2496 8.07391 13.3188 7.97038 13.3659 7.85644C13.4131 7.7425 13.4374 7.62038 13.4374 7.49706C13.4374 7.37373 13.4131 7.25161 13.3659 7.13767C13.3188 7.02373 13.2496 6.9202 13.1624 6.83299C13.0752 6.74579 12.9716 6.67661 12.8577 6.62942C12.7438 6.58222 12.6216 6.55793 12.4983 6.55793C12.375 6.55793 12.2529 6.58222 12.1389 6.62942C12.025 6.67661 11.9214 6.74579 11.8342 6.83299L5.23424 13.4424C4.44206 11.5674 4.51393 9.72127 5.46862 8.15174C7.10221 5.45409 10.9796 3.95487 15.9374 4.06971C16.0452 9.02596 14.546 12.9041 11.8483 14.5377Z" fill="black"/>
</svg>
