<svg width="24" height="24" viewBox="0 0 24 24" fill="none" xmlns="http://www.w3.org/2000/svg">
<path d="M17.6312 7.13598C17.5142 7.07698 17.4012 7.01198 17.2902 6.94098C16.9702 6.73298 16.6762 6.48798 16.4152 6.21098C15.7632 5.47798 15.5192 4.73398 15.4292 4.21298H15.4332C15.3582 3.77998 15.3892 3.50098 15.3942 3.50098H12.4212V14.79C12.4212 14.942 12.4212 15.092 12.4152 15.24C12.4152 15.258 12.4132 15.275 12.4122 15.295C12.4122 15.303 12.4122 15.311 12.4102 15.32V15.326C12.3462 16.149 11.8702 16.886 11.1402 17.294C10.7652 17.503 10.3422 17.613 9.91015 17.613C8.52615 17.613 7.40315 16.503 7.40315 15.134C7.40315 13.764 8.52615 12.655 9.91015 12.655C10.1732 12.654 10.4332 12.695 10.6822 12.775L10.6862 9.80198C9.15615 9.60798 7.61415 10.051 6.43215 11.024C5.91915 11.462 5.48915 11.983 5.15915 12.566C5.03315 12.779 4.56015 13.632 4.50315 15.018C4.46715 15.805 4.70715 16.62 4.82215 16.956V16.964C4.89415 17.162 5.17315 17.839 5.62915 18.409C5.99615 18.867 6.43015 19.269 6.91615 19.602V19.595L6.92315 19.602C8.36215 20.563 9.95815 20.5 9.95815 20.5C10.2342 20.489 11.1592 20.5 12.2102 20.011C13.3752 19.468 14.0382 18.661 14.0382 18.661C14.4622 18.178 14.7992 17.628 15.0352 17.034C15.3042 16.34 15.3942 15.507 15.3942 15.174V9.18398C15.4302 9.20598 15.9102 9.51798 15.9102 9.51798C15.9102 9.51798 16.6022 9.95298 17.6812 10.237C18.4562 10.439 19.4992 10.481 19.4992 10.481V7.58298C19.1332 7.62198 18.3912 7.50798 17.6312 7.13598Z" fill="white" fill-opacity="0.5"/>
</svg>
